<svg width="24.000000" height="24.000000" viewBox="0 0 24 24" fill="none" xmlns="http://www.w3.org/2000/svg" xmlns:xlink="http://www.w3.org/1999/xlink">
	<desc>
			Created with Pixso.
	</desc>
	<defs>
		<clipPath id="clip3432_551">
			<rect id="fluent:call-20-regular" width="24.000000" height="24.000000" fill="white"/>
		</clipPath>
	</defs>
	<g clip-path="url(#clip3432_551)">
		<path id="Vector" d="M8.38379 2.47925L7.5249 2.73846C6.7583 2.9693 6.07422 3.41431 5.55225 4.02106C5.03027 4.62781 4.69238 5.37103 4.57861 6.16327C4.22217 8.64487 5.01904 11.5464 6.94043 14.8741C8.85693 18.1933 10.9663 20.3317 13.2886 21.2677C14.0347 21.5684 14.8511 21.6485 15.6416 21.4985C16.4316 21.3485 17.1626 20.9748 17.7466 20.4217L18.3979 19.8049C18.8203 19.405 19.083 18.8654 19.1372 18.2865C19.1914 17.7076 19.0337 17.1287 18.6934 16.6573L17.0659 14.4012C16.8462 14.0967 16.5361 13.8686 16.1802 13.749C15.8237 13.6293 15.4395 13.6241 15.0801 13.7341L12.6187 14.4865L12.5552 14.4985C12.2842 14.5381 11.6587 13.9513 10.8789 12.6001C10.063 11.1865 9.89258 10.3596 10.1182 10.1461L11.3706 8.97845C11.8281 8.55167 12.1406 7.99237 12.2642 7.37903C12.3877 6.76569 12.3164 6.12906 12.0596 5.55847L11.2676 3.79327C11.0288 3.26154 10.6045 2.83496 10.0742 2.59317C9.54346 2.35138 8.94336 2.31088 8.38525 2.47925L8.38379 2.47925ZM10.1719 4.28525L10.9653 6.05045C11.1196 6.39273 11.1626 6.77475 11.0884 7.14279C11.0146 7.51083 10.8271 7.84647 10.5522 8.10245L9.29736 9.27127C8.49316 10.0309 8.75977 11.3304 9.83838 13.2001C10.855 14.9593 11.7812 15.8281 12.7759 15.6768L12.9248 15.6457L15.4302 14.8813C15.5503 14.8445 15.6782 14.8461 15.7974 14.8859C15.916 14.9257 16.0195 15.0017 16.0928 15.1033L17.7202 17.3593C17.8906 17.595 17.9692 17.8846 17.9424 18.1742C17.915 18.4638 17.7837 18.7337 17.5723 18.9337L16.9209 19.5504C16.5034 19.9453 15.9819 20.212 15.4175 20.3191C14.853 20.4261 14.27 20.3688 13.7373 20.1541C11.6997 19.3333 9.77344 17.3809 7.97949 14.274C6.18213 11.1601 5.45459 8.51166 5.7666 6.33365C5.84814 5.76764 6.08936 5.2366 6.46191 4.8031C6.83496 4.3696 7.32422 4.0517 7.87158 3.88687L8.73193 3.62766C9.01074 3.54385 9.31104 3.56433 9.57568 3.68533C9.84082 3.80634 10.0527 4.01956 10.1719 4.28525Z" fill-rule="nonzero" fill="#FFFFFF"/>
	</g>
</svg>
