<svg width="213.265625" height="36.000000" viewBox="0 0 213.266 36" fill="none" xmlns="http://www.w3.org/2000/svg" xmlns:xlink="http://www.w3.org/1999/xlink">
	<desc>
			Created with Pixso.
	</desc>
	<defs/>
	<path id="Circeya" d="M185.003 2L174.364 19.5L174.364 19.55L174.314 19.5L163.725 2L159.784 2L172.099 20.6L172.099 33.95L175.152 33.95L175.152 20.6L187.466 2L185.003 2ZM77.7568 34L77.7568 2.04999L74.7031 2.04999L74.7031 34L77.7568 34ZM94.2344 17.9C99.7998 17.55 103.938 13.8 103.938 9.70001C103.938 4.29999 97.6816 2.04999 91.8203 2.04999L81.8223 2.04999L81.8223 33.9L85.0732 33.9L85.0732 18.05C92.2637 18.05 100.342 18.25 100.342 33.75L100.342 33.9L103.938 33.9L103.938 33.85C103.938 25.55 100.982 20 94.2344 17.9ZM200.263 2.04999L195.978 2.04999L183.023 33.95L185.732 33.95L190.018 22.4L204.646 22.4L208.932 33.95L213.266 33.95L200.263 2.04999ZM66.8096 23.8C64.9375 27.3 62.2783 29.95 59.2734 31.2C57.9434 31.85 56.5645 32.15 55.2344 32.15C54.1016 32.15 52.9688 31.9 51.9346 31.45C51.6387 31.3 51.2939 31.1 50.9004 30.9L50.7031 30.7C47.8779 28.7784 46.3789 25.0912 46.3789 20.9821C46.3789 18.1417 47.0957 15.0998 48.585 12.3C50.4072 8.79999 53.0674 6.14999 56.1211 4.85001C57.5 4.20001 58.8301 3.89999 60.1602 3.89999C61.3418 3.89999 62.4756 4.14999 63.46 4.60001L64.248 5.04999C64.2979 5.04999 64.3467 5.10001 64.3467 5.10001L64.4941 5.14999L64.6914 5.35001C67.4561 7.22116 69.0273 10.8381 69.0273 15.1024C69.0273 15.1681 69.0264 15.234 69.0264 15.3L71.9316 15.35C71.2422 10.75 68.7305 6.75 65.0859 4.35001L65.0361 4.29999C64.9873 4.29999 64.9873 4.25 64.9375 4.25L64.8389 4.20001C62.6719 2.79999 60.209 2.10001 57.6973 2.10001C49.7178 2.10001 43.2656 9.25 43.2656 18.05C43.2656 23.2 45.4824 28 49.2744 30.95C49.6191 31.25 49.8164 31.4 50.0625 31.55C50.3096 31.75 50.5059 31.85 50.7031 32C50.999 32.15 51.2939 32.35 51.5898 32.45C53.5107 33.45 55.5791 33.95 57.6973 33.95C64.4941 33.95 70.4053 28.7 71.834 21.4L67.7949 21.5C67.499 22.3 67.1543 23.1 66.8096 23.8ZM129.437 23.8C127.564 27.3 124.905 29.95 121.9 31.2C120.57 31.85 119.191 32.15 117.861 32.15C116.729 32.15 115.596 31.9 114.562 31.45C114.266 31.3 113.921 31.1 113.527 30.9L113.33 30.7C110.505 28.7784 109.006 25.0912 109.006 20.9821C109.006 18.1417 109.723 15.0998 111.212 12.3C113.034 8.79999 115.694 6.14999 118.748 4.85001C120.127 4.20001 121.457 3.89999 122.787 3.89999C123.97 3.89999 125.103 4.14999 126.087 4.60001L126.875 5.04999C126.925 5.04999 126.974 5.10001 126.974 5.10001L127.122 5.14999L127.318 5.35001C130.084 7.22116 131.654 10.8381 131.654 15.1024C131.654 15.1681 131.654 15.234 131.653 15.3L134.56 15.35C133.869 10.75 131.357 6.75 127.713 4.35001L127.663 4.29999C127.614 4.29999 127.614 4.25 127.564 4.25L127.467 4.20001C125.299 2.79999 122.836 2.10001 120.324 2.10001C112.345 2.10001 105.893 9.25 105.893 18.05C105.893 23.2 108.109 28 111.901 30.95C112.246 31.25 112.443 31.4 112.689 31.55C112.937 31.75 113.133 31.85 113.33 32C113.626 32.15 113.921 32.35 114.217 32.45C116.138 33.45 118.206 33.95 120.324 33.95C127.122 33.95 133.032 28.7 134.461 21.4L130.422 21.5C130.126 22.3 129.781 23.1 129.437 23.8ZM159.84 3.25L159.84 2.10001L137.33 2.10001L137.33 33.95L159.84 33.95L159.84 32.75L140.335 32.75L140.335 18.7L157.968 18.7L157.968 17.4L140.335 17.4L140.335 3.25L159.84 3.25ZM190.51 21.1L197.356 2.75L204.153 21.1L190.51 21.1ZM85.0732 17L85.0732 3.14999L93.5938 3.14999C96.3027 3.25 98.8154 4.5 99.7998 6.89999C100.129 7.67847 100.284 8.48907 100.284 9.29828C100.284 12.1273 98.3818 14.9392 95.3174 16.3C94.2832 16.75 93.1504 16.95 92.1162 17L85.0732 17ZM64.1992 5.35001C64.248 5.39999 64.248 5.39999 64.2979 5.39999C64.248 5.39999 64.248 5.35001 64.1992 5.35001ZM126.826 5.35001C126.875 5.39999 126.875 5.39999 126.925 5.39999C126.875 5.39999 126.875 5.35001 126.826 5.35001Z" fill-rule="evenodd" fill="#FFFFFF"/>
	<path id="Vector" d="M24.6865 14.1422Q23.8877 14.9411 23.4883 15.9055Q23.0879 16.87 23.0879 18Q23.0879 19.1299 23.4883 20.0944Q23.8877 21.0589 24.6865 21.8579Q25.4854 22.6569 26.4502 23.0564Q27.4141 23.4558 28.5439 23.4558Q29.6738 23.4558 30.6387 23.0563Q31.6025 22.6569 32.4023 21.8578Q33.2012 21.0589 33.6006 20.0944Q34 19.1299 34 18Q34 16.8701 33.6006 15.9056Q33.2012 14.9411 32.4023 14.1422Q31.6025 13.3431 30.6387 12.9437Q29.6738 12.5442 28.5439 12.5442Q27.4141 12.5442 26.4502 12.9437Q25.4854 13.3431 24.6865 14.1422ZM26.9033 25.274C25.5723 24.9752 24.3076 24.3079 23.2725 23.2721C22.2363 22.2363 21.5693 20.9716 21.2705 19.6409C21.0273 18.5615 21.0273 17.4385 21.2705 16.3591C21.5693 15.0284 22.2363 13.7637 23.2725 12.7279C24.3076 11.6922 25.5723 11.0248 26.9033 10.726C29.3135 10.1847 31.9404 10.852 33.8164 12.7279C36.7275 15.6396 36.7275 20.3604 33.8164 23.2721C31.9404 25.148 29.3135 25.8153 26.9033 25.274ZM25.2744 9.09674C24.9756 10.4275 24.3076 11.6922 23.2725 12.7279C22.2363 13.7637 20.9717 14.431 19.6406 14.7299C18.5615 14.9723 17.4385 14.9723 16.3594 14.7299C15.0283 14.431 13.7637 13.7637 12.7275 12.7279C11.6924 11.6921 11.0244 10.4275 10.7256 9.09674C10.1846 6.68655 10.8516 4.05969 12.7275 2.18378C15.6396 -0.727936 20.3604 -0.727936 23.2725 2.18378C25.1484 4.05969 25.8154 6.68655 25.2744 9.09674ZM14.7295 16.3591C14.4307 15.0284 13.7637 13.7637 12.7275 12.7279C11.6924 11.6922 10.4277 11.0248 9.09668 10.726C6.68652 10.1847 4.05957 10.852 2.18359 12.7279C-0.727539 15.6396 -0.727539 20.3604 2.18359 23.2721C4.05957 25.148 6.68652 25.8153 9.09668 25.274C10.4277 24.9752 11.6924 24.3079 12.7275 23.2721C11.6924 24.3079 11.0244 25.5725 10.7256 26.9033C10.1846 29.3134 10.8516 31.9403 12.7275 33.8162C15.6396 36.7279 20.3604 36.7279 23.2725 33.8162C25.1484 31.9403 25.8154 29.3134 25.2744 26.9033C24.9756 25.5725 24.3076 24.3079 23.2725 23.2721C22.2363 22.2363 20.9717 21.569 19.6406 21.2701C18.5615 21.0277 17.4385 21.0277 16.3594 21.2701C15.0283 21.569 13.7637 22.2363 12.7275 23.2721C13.7637 22.2363 14.4307 20.9716 14.7295 19.6409C14.9727 18.5615 14.9727 17.4385 14.7295 16.3591ZM11.3135 21.8579Q12.1123 21.0589 12.5117 20.0945Q12.9121 19.13 12.9121 18Q12.9121 16.87 12.5117 15.9055Q12.1123 14.9411 11.3135 14.1421Q10.5146 13.3431 9.5498 12.9437Q8.58594 12.5442 7.45605 12.5442Q6.32617 12.5442 5.36133 12.9437Q4.39648 13.3431 3.59766 14.1422Q2.79883 14.9411 2.39941 15.9056Q2 16.8701 2 18Q2 19.1299 2.39941 20.0944Q2.79883 21.0589 3.59766 21.8578Q4.39648 22.6569 5.36133 23.0563Q6.32617 23.4558 7.45605 23.4558Q8.58594 23.4558 9.5498 23.0563Q10.5146 22.6569 11.3135 21.8579ZM23.0566 9.55023Q22.6572 10.5147 21.8574 11.3137Q21.0586 12.1127 20.0947 12.5122Q19.1299 12.9117 18 12.9117Q16.8701 12.9117 15.9053 12.5122Q14.9414 12.1127 14.1426 11.3137Q13.3428 10.5147 12.9434 9.55023Q12.5439 8.58578 12.5439 7.45584Q12.5439 6.3259 12.9434 5.36142Q13.3428 4.39697 14.1426 3.59799Q14.9414 2.79898 15.9053 2.39951Q16.8701 2 18 2Q19.1299 2 20.0947 2.39951Q21.0586 2.79898 21.8574 3.59799Q22.6572 4.39694 23.0566 5.36142Q23.4561 6.32587 23.4561 7.45584Q23.4561 8.58578 23.0566 9.55023ZM23.0566 30.6385Q22.6572 31.603 21.8574 32.402Q21.0586 33.201 20.0947 33.6005Q19.1299 34 18 34Q16.8701 34 15.9053 33.6005Q14.9414 33.201 14.1426 32.402Q13.3428 31.603 12.9434 30.6385Q12.5439 29.6741 12.5439 28.5442Q12.5439 27.4142 12.9434 26.4498Q13.3428 25.4853 14.1426 24.6863Q14.9414 23.8873 15.9053 23.4878Q16.8701 23.0883 18 23.0883Q19.1299 23.0883 20.0947 23.4878Q21.0586 23.8873 21.8574 24.6863Q22.6572 25.4853 23.0566 26.4498Q23.4561 27.4142 23.4561 28.5442Q23.4561 29.6741 23.0566 30.6385Z" fill-rule="evenodd" fill="#FFFFFF"/>
</svg>
